<svg xmlns="http://www.w3.org/2000/svg" viewBox="0 0 64 64" width="256" height="256" fill="none">
  <!-- viberoom app icon (design "1c · Playful pop"): a purple tile, two chat bubbles, one of them a robot -->
  <defs>
    <linearGradient id="bg" x1="0" y1="0" x2="1" y2="1"><stop offset="0" stop-color="#8b8bff"/><stop offset="1" stop-color="#4040d0"/></linearGradient>
    <radialGradient id="gloss" cx=".3" cy=".1" r=".9"><stop offset="0" stop-color="#fff" stop-opacity=".45"/><stop offset=".6" stop-color="#fff" stop-opacity="0"/></radialGradient>
    <linearGradient id="white" x1="0" y1="0" x2="0" y2="1"><stop offset="0" stop-color="#ffffff"/><stop offset="1" stop-color="#e6e6ff"/></linearGradient>
    <linearGradient id="lav" x1="0" y1="0" x2="0" y2="1"><stop offset="0" stop-color="#dcdcff"/><stop offset="1" stop-color="#b3b3ff"/></linearGradient>
    <filter id="drop" x="-20%" y="-20%" width="140%" height="160%"><feDropShadow dx="0" dy="2.5" stdDeviation="1.8" flood-color="#1c1b8a" flood-opacity=".35"/></filter>
  </defs>
  <rect width="64" height="64" rx="18" fill="url(#bg)"/>
  <rect width="64" height="64" rx="18" fill="url(#gloss)"/>
  <rect x="1" y="1" width="62" height="62" rx="17" stroke="#fff" stroke-opacity=".25"/>
  <g filter="url(#drop)">
    <rect x="10" y="13" width="30" height="22" rx="9" fill="url(#white)"/>
    <path d="M16 34v8l9-8z" fill="#e6e6ff"/>
    <rect x="18" y="19" width="14" height="10" rx="4" fill="#4a4ade"/>
    <circle cx="22.5" cy="24" r="1.7" fill="#fff"/>
    <circle cx="27.5" cy="24" r="1.7" fill="#fff"/>
    <path d="M25 19v-3" stroke="#4a4ade" stroke-width="1.6" stroke-linecap="round"/>
    <circle cx="25" cy="15" r="1.4" fill="#ffd166"/>
  </g>
  <g filter="url(#drop)">
    <rect x="27" y="29" width="28" height="20" rx="9" fill="url(#lav)"/>
    <path d="M49 48v8l-9-8z" fill="#b3b3ff"/>
    <circle cx="35" cy="39" r="2.1" fill="#3a3ac8"/>
    <circle cx="41" cy="39" r="2.1" fill="#3a3ac8"/>
    <circle cx="47" cy="39" r="2.1" fill="#3a3ac8"/>
  </g>
  <path d="M51 11l1.2 3.3 3.3 1.2-3.3 1.2L51 20l-1.2-3.3-3.3-1.2 3.3-1.2z" fill="#ffd166"/>
  <circle cx="12" cy="50" r="1.6" fill="#fff" opacity=".7"/>
</svg>
